<svg width="72" height="72" viewBox="0 0 72 72" fill="none" xmlns="http://www.w3.org/2000/svg">
<path d="M65.1646 0H6.83544C3.06033 0 0 3.11956 0 6.96774V65.0323C0 68.8804 3.06033 72 6.83544 72H65.1646C68.9397 72 72 68.8804 72 65.0323V6.96774C72 3.11956 68.9397 0 65.1646 0Z" fill="#263A60"/>
<path d="M44.3812 59.8668C41.426 59.8668 39.4037 59.2328 38.3149 57.9642C37.2261 56.6956 36.6817 54.7929 36.6817 52.2562V38.343H31.8987V33.2296H34.3486C35.0874 33.2296 35.6123 33.1107 35.9234 32.8729C36.2734 32.6351 36.5262 32.1594 36.6817 31.4459L37.8483 25.0839H43.7979V33.2296H55.9303V38.343H43.7979V52.3157C43.7979 53.3065 44.0312 53.9605 44.4978 54.2778C44.9645 54.5951 45.6644 54.7535 46.5977 54.7535H54.8221L55.4054 59.2723C54.5888 59.3912 53.3443 59.5301 51.6723 59.6885C50.0004 59.8074 48.1726 59.8668 46.1894 59.8668H44.3812Z" fill="#FFFDFD"/>
<path d="M53.0613 29.6733H49.8714V42.2152H53.0613V29.6733Z" fill="#263A60"/>
</svg>
